<svg xmlns="http://www.w3.org/2000/svg" viewBox="0 0 180 102"><defs><style>.cls-1{fill:#e2e2e2;}.cls-2{fill:#fff;}.cls-3{fill:#afafaf;}.cls-4{fill:#ffafa1;}.cls-5{fill:#276ef1;}</style></defs><title>Illo_HRW_Step4</title><g id="BG"><path class="cls-1" d="M180,0H0V102H180Z"/></g><g id="Layer_1" data-name="Layer 1"><path d="M132,57.73H48v18h84Z"/><path class="cls-2" d="M132,52.12V66.32l-2.56,4a4.64,4.64,0,0,1-4,2.23h-71a4.54,4.54,0,0,1-4-2.23l-2.56-4V52.12a12.35,12.35,0,0,1,1.82-6.36l13-21a9.53,9.53,0,0,1,8.09-4.54h38.41a9.53,9.53,0,0,1,8.09,4.54l13,21A12.27,12.27,0,0,1,132,52.12Z"/><path d="M57,81.77h-2.4A6.63,6.63,0,0,1,48,75.16v-.91H63.62v.91A6.52,6.52,0,0,1,57,81.77Z"/><path d="M125.43,81.77H123a6.63,6.63,0,0,1-6.61-6.61v-.91H132v.91A6.57,6.57,0,0,1,125.43,81.77Z"/><path class="cls-2" d="M55.47,32.21H49.2A1.3,1.3,0,0,0,48,33.86a5.13,5.13,0,0,0,5,3.8H57L57.7,35A2.27,2.27,0,0,0,55.47,32.21Z"/><path class="cls-2" d="M124.53,32.21h6.28A1.3,1.3,0,0,1,132,33.86a5.13,5.13,0,0,1-5,3.8H123L122.3,35A2.27,2.27,0,0,1,124.53,32.21Z"/><path d="M115.69,25.77a7.63,7.63,0,0,0-6.44-3.63H70.76a7.35,7.35,0,0,0-6.44,3.63l-5.95,9.58a1.46,1.46,0,0,0,1.24,2.23h60.71a1.44,1.44,0,0,0,1.24-2.23Z"/><path class="cls-3" d="M120.23,44.19H59.85v4h60.38Z"/><path class="cls-4" d="M65.8,48.23H63.32a2.76,2.76,0,0,0-2.4,1.49l-1.24,2.73a3.61,3.61,0,0,1-3.3,2.15H48V52.12a12.35,12.35,0,0,1,1.82-6.36l1-1.57H60.6a3,3,0,0,1,2.15.91Z"/><path class="cls-1" d="M114.2,48.23l-9.5,9.5A4.24,4.24,0,0,1,101.65,59H78.35a4.24,4.24,0,0,1-3.06-1.24l-9.5-9.5Z"/><path class="cls-5" d="M98.42,59H81.58a1.22,1.22,0,0,1-1.24-1.24V51a1.22,1.22,0,0,1,1.24-1.24H98.51A1.22,1.22,0,0,1,99.75,51v6.77A1.29,1.29,0,0,1,98.42,59Z"/><path d="M56.3,74.5,61.83,69a5.12,5.12,0,0,1,3.63-1.49h48.65A5.34,5.34,0,0,1,117.75,69l5.95,5.95Z"/><path class="cls-4" d="M114.2,48.23h2.48a2.76,2.76,0,0,1,2.4,1.49l1.24,2.73a3.61,3.61,0,0,0,3.3,2.15H132V52.12a12.27,12.27,0,0,0-1.73-6.36l-1-1.57h-9.83a3,3,0,0,0-2.15.91Z"/></g></svg>