<svg xmlns="http://www.w3.org/2000/svg" viewBox="0 0 180 102"><defs><style>.cls-1{fill:#e2e2e2;}.cls-2{fill:#fff;}.cls-3{fill:#ffafa1;}.cls-4{fill:#99644d;}.cls-5{fill:#afafaf;}.cls-6{fill:#4e545b;}</style></defs><title>Illo_HRW_Step5_2</title><g id="BG"><path class="cls-1" d="M180,0H0V102H180Z"/></g><g id="Layer_1" data-name="Layer 1"><path d="M147.85,59.4,30.23,59.25s-5.82-5.9,0-10.84A124.3,124.3,0,0,1,49.28,37c17-7.74,35.26-12.36,54.8-12.36h17.29c9.13,0,13.75,2.63,16.7,9.75Z"/><path class="cls-2" d="M146.43,77.45H108.58A11.86,11.86,0,0,1,104,76.38L97.41,73.2l-3.34-2.39-2.93-1.27H91a27.65,27.65,0,0,0-10-2.44,28,28,0,0,0-11.72,1.66c-2.74,1-3.3,5.78-2.4,8.69H52.08a13.11,13.11,0,0,1-9.34-3.91S30.2,59.24,30.21,59.23l117.59.15,3.71,9.48C153.07,73,150.44,77.45,146.43,77.45Z"/><path d="M104,76.38s-1.16-.57-3-1.3a78.51,78.51,0,0,1-7.3-4.35L90.8,69.46h-.1l3.91-9.18,4.88,1.66L99.1,63.6l-.49,3.13c-.49,3,1.08,6.15,3.45,8.19A21.24,21.24,0,0,0,104,76.38Z"/><path class="cls-3" d="M105.56,54.7a1.53,1.53,0,0,1,.39.78,1.06,1.06,0,0,1-.88,1.08,1.13,1.13,0,0,1,.78,1,.72.72,0,0,1-.49.78,1.24,1.24,0,0,0-.69,1H81a14.91,14.91,0,0,1-5.49-10.2,18.89,18.89,0,0,1-.1-2.35,3.34,3.34,0,0,1,.1-1c0-.29.1-.69.1-1v-.1c0-.2.1-.39.1-.59s.1-.39.1-.59c.1-.39.2-.69.29-1.08a15.64,15.64,0,0,1,1.18-2.65c.1-.2.2-.29.29-.49s.2-.29.29-.49a5.39,5.39,0,0,1,.69-.88c.39-.39.78-.88,1.18-1.27a5.92,5.92,0,0,0,.78-.78,5.38,5.38,0,0,1,.88-.69,8.62,8.62,0,0,1,1-.59,11.19,11.19,0,0,1,1.86-1,1.39,1.39,0,0,1,.59-.2,16.77,16.77,0,0,1,2.94-.88,12,12,0,0,1,2.65-.2,15.37,15.37,0,0,1,13.14,7.45,8.87,8.87,0,0,1,.71,1.66,7.44,7.44,0,0,1,.29,3.23,20.19,20.19,0,0,1-.61,2.46,2.42,2.42,0,0,0,.49,2.16L106,51.07a1.07,1.07,0,0,1-.1,1.47C105.56,53.13,104.87,53.91,105.56,54.7Z"/><path class="cls-4" d="M103.6,39.79l-2.45,4.47a5.06,5.06,0,0,1-7,2l-1.37-.78L88.84,51.2l.49.49a8.61,8.61,0,0,1,2,7.62H68.13A25.23,25.23,0,0,0,74.5,48.22c.62-2.64,1-4.19,1.54-5.81a16.57,16.57,0,0,1,2.44-4.49,15.45,15.45,0,0,1,3.81-3.32,13.51,13.51,0,0,1,8-2.32A15,15,0,0,1,103.6,39.79Z"/><path class="cls-4" d="M89.13,44.36l5.67,6.15,2.44-4.3Z"/><path class="cls-3" d="M97.73,61.45,88.55,51.1a3.52,3.52,0,0,1,1.86-5.76A3.56,3.56,0,0,1,94.61,48Z"/><path class="cls-5" d="M104.47,61.94a2.43,2.43,0,0,1-3,2.15L98,63.21a2,2,0,0,0-2.44,1.37l-1.76,6.15-2.93-1.27a27.8,27.8,0,0,0-10-2.54l1.76-6.45A8.64,8.64,0,0,1,81,59.3h23.65Z"/><path class="cls-6" d="M101,75.08s-1-.32-11.27-4.63c-10.91-4.6-17.33-.88-22.77,7-6.81-7.56-1.31-15.27,1.2-18.22l23.08.07-.39,1.07A9.23,9.23,0,0,0,94.8,70.54Z"/></g></svg>