<svg xmlns="http://www.w3.org/2000/svg" viewBox="0 0 180 102"><defs><style>.cls-1{fill:#e2e2e2;}.cls-2{fill:#fff;}.cls-3{fill:#276ef1;}.cls-4{fill:#ffafa1;}</style></defs><title>Illo_HRW_Step3</title><g id="BG"><path class="cls-1" d="M180,0H0V102H180Z"/></g><g id="Layer_1" data-name="Layer 1"><path class="cls-2" d="M100.7,44.49H0v13H100.7Z"/><path class="cls-3" d="M180,44.49H79.3v13H180Z"/><path class="cls-2" d="M143.22,54.56v-7a17.21,17.21,0,0,0-.56-4.41c-.19-.75-.94-2.53-.94-2.63a14.93,14.93,0,0,0-1.22-2.06c-.09-.09-2.06-2.91-2.06-2.91-.19-.19-.38-.47-.56-.66-.47-.47-.94-.94-1.5-1.41a.09.09,0,0,1-.09-.09,9.84,9.84,0,0,0-2.63-1.31,32.68,32.68,0,0,0-5.25-1.13,34.16,34.16,0,0,0-5.35-.38H55.35a24.1,24.1,0,0,0-5.81.75l-7.78,2.06s-4.13,7-4.31,8a22.59,22.59,0,0,0-.66,3.47V57.1a15.09,15.09,0,0,0,.66,3.47c.28.94,4.31,7.88,4.31,7.88l7.69,2.06a24.1,24.1,0,0,0,5.81.75h67.61a34.15,34.15,0,0,0,5.35-.38.85.85,0,0,0,.47-.09,45.7,45.7,0,0,0,4.88-1.13,8.63,8.63,0,0,0,2.63-1.31.09.09,0,0,0,.09-.09,7.05,7.05,0,0,0,1.5-1.41c.19-.19.38-.47.56-.66,0,0,2.06-2.81,2.06-2.91a14.93,14.93,0,0,0,1.22-2.06,5.58,5.58,0,0,1,.28-.66,8.1,8.1,0,0,0,.66-2A11,11,0,0,0,143.22,54.56Z"/><path class="cls-2" d="M88.83,32.71,84.7,31.49,84,39,87,37.59Z"/><path d="M49.16,64.22a33.81,33.81,0,0,1,0-26.35v-.09a1.76,1.76,0,0,1,1.78-1c3,.28,10.32.94,12.94,1.31a1.37,1.37,0,0,1,1.22,1.69v.09a68,68,0,0,0,0,22.22v.09a1.5,1.5,0,0,1-1.22,1.69c-2.63.38-9.94,1-12.94,1.31A1.63,1.63,0,0,1,49.16,64.22Z"/><path d="M110.58,68.54c.28.19.19.75-.19.75H74.2a65.87,65.87,0,0,1-10.69-1.41.39.39,0,0,1-.09-.75c1.88-.94,6.28-2.72,13.5-2.72H90.7a43.27,43.27,0,0,1,10.41,1.22L107,67A13.11,13.11,0,0,1,110.58,68.54Z"/><path class="cls-2" d="M88.83,69.29l-4.13.94-.75-7L87,64.41Z"/><path d="M117.34,65.82l.75-1.5a32.67,32.67,0,0,0,.66-24l-1.41-4a1.81,1.81,0,0,0-1.59-.94,6.3,6.3,0,0,1-1.69-.09l-13.32,3.28a1.32,1.32,0,0,0-.94,1.59,44.94,44.94,0,0,1,0,21.76,1.36,1.36,0,0,0,.94,1.59l13.32,3.28h1.69A1.71,1.71,0,0,0,117.34,65.82Z"/><path class="cls-4" d="M37.44,60.66c.09.19.09.47.19.66a16.91,16.91,0,0,0,.75,2,17.64,17.64,0,0,0,3.47,5.25H45a.57.57,0,0,0,.38-1C42.88,65.35,37.44,60.66,37.44,60.66Z"/><path class="cls-4" d="M37.44,41.34c.09-.19.09-.47.19-.66a16.91,16.91,0,0,1,.75-2,17.64,17.64,0,0,1,3.47-5.25H45a.57.57,0,0,1,.38,1C42.88,36.56,37.44,41.34,37.44,41.34Z"/><path class="cls-2" d="M108,32.25l-3.66-7.31a.6.6,0,0,1,.56-.84h.84a3.34,3.34,0,0,1,2.91,1.59l1.88,2.81a3.31,3.31,0,0,1,.56,1.78v2.34Z"/><path class="cls-2" d="M108.05,69.75l-3.66,7.31a.6.6,0,0,0,.56.84h.84a3.34,3.34,0,0,0,2.91-1.59l1.88-2.81a3.31,3.31,0,0,0,.56-1.78V69.38Z"/><path class="cls-4" d="M141.9,60.85l-2.72.19a3.11,3.11,0,0,0-2,1.22l-4,5.72a3.37,3.37,0,0,1-1.31,1l-2.53.84a.79.79,0,0,0-.56.75V71a45.73,45.73,0,0,0,4.88-1.13,8.62,8.62,0,0,0,2.63-1.31.09.09,0,0,0,.09-.09,7.05,7.05,0,0,0,1.5-1.41c.19-.19.38-.47.56-.66,0,0,2.06-2.81,2.06-2.91a14.93,14.93,0,0,0,1.22-2.06C141.62,61.5,141.72,61.22,141.9,60.85Z"/><path class="cls-4" d="M141.9,41.15,139.18,41a3.11,3.11,0,0,1-2-1.22l-4-5.72a3.37,3.37,0,0,0-1.31-1l-2.53-.84a.79.79,0,0,1-.56-.75V31a45.73,45.73,0,0,1,4.88,1.13,8.62,8.62,0,0,1,2.63,1.31.09.09,0,0,1,.09.09,7.05,7.05,0,0,1,1.5,1.41c.19.19.38.47.56.66,0,0,2.06,2.81,2.06,2.91a14.93,14.93,0,0,1,1.22,2.06C141.62,40.5,141.72,40.78,141.9,41.15Z"/><path d="M110.58,33.37c.28-.19.19-.75-.19-.75H74.2A65.87,65.87,0,0,0,63.51,34a.39.39,0,0,0-.09.75c1.88.94,6.28,2.72,13.5,2.72H90.7a43.28,43.28,0,0,0,10.41-1.22L107,34.87A10.72,10.72,0,0,0,110.58,33.37Z"/><path class="cls-2" d="M88.83,32.71l-4.13-1L84,38.81,87,37.59Z"/></g></svg>